<mxfile host="app.diagrams.net" modified="2023-11-01T18:58:12.281Z" agent="Mozilla/5.0 (Windows NT 10.0; Win64; x64) AppleWebKit/537.36 (KHTML, like Gecko) Chrome/118.0.0.0 Safari/537.36 Edg/118.0.2088.76" etag="1SPsDBhjG7_O9EEODJm2" version="21.6.8" type="device">
  <diagram name="Page-1" id="ndGJzlXrIU8CfeqaNyqw">
    <mxGraphModel dx="927" dy="401" grid="1" gridSize="10" guides="1" tooltips="1" connect="1" arrows="1" fold="1" page="1" pageScale="1" pageWidth="850" pageHeight="1100" background="none" math="0" shadow="0">
      <root>
        <mxCell id="0" />
        <mxCell id="1" parent="0" />
        <mxCell id="X93Lmip0L_ZCADtNSoCG-7" style="edgeStyle=orthogonalEdgeStyle;rounded=0;orthogonalLoop=1;jettySize=auto;html=1;exitX=1;exitY=0.3333333333333333;exitDx=0;exitDy=0;exitPerimeter=0;entryX=0;entryY=0.5;entryDx=0;entryDy=0;" parent="1" source="X93Lmip0L_ZCADtNSoCG-1" target="X93Lmip0L_ZCADtNSoCG-6" edge="1">
          <mxGeometry relative="1" as="geometry" />
        </mxCell>
        <mxCell id="X93Lmip0L_ZCADtNSoCG-10" style="edgeStyle=orthogonalEdgeStyle;rounded=0;orthogonalLoop=1;jettySize=auto;html=1;exitX=0.75;exitY=0.1;exitDx=0;exitDy=0;exitPerimeter=0;entryX=0;entryY=0.5;entryDx=0;entryDy=0;" parent="1" source="X93Lmip0L_ZCADtNSoCG-1" target="X93Lmip0L_ZCADtNSoCG-9" edge="1">
          <mxGeometry relative="1" as="geometry" />
        </mxCell>
        <mxCell id="X93Lmip0L_ZCADtNSoCG-12" style="edgeStyle=orthogonalEdgeStyle;rounded=0;orthogonalLoop=1;jettySize=auto;html=1;exitX=0.75;exitY=0.1;exitDx=0;exitDy=0;exitPerimeter=0;entryX=0;entryY=0.5;entryDx=0;entryDy=0;" parent="1" source="X93Lmip0L_ZCADtNSoCG-1" target="X93Lmip0L_ZCADtNSoCG-11" edge="1">
          <mxGeometry relative="1" as="geometry" />
        </mxCell>
        <mxCell id="X93Lmip0L_ZCADtNSoCG-14" style="edgeStyle=orthogonalEdgeStyle;rounded=0;orthogonalLoop=1;jettySize=auto;html=1;exitX=0.75;exitY=0.1;exitDx=0;exitDy=0;exitPerimeter=0;" parent="1" source="X93Lmip0L_ZCADtNSoCG-1" target="X93Lmip0L_ZCADtNSoCG-13" edge="1">
          <mxGeometry relative="1" as="geometry">
            <Array as="points">
              <mxPoint x="50" y="286" />
              <mxPoint x="50" y="260" />
            </Array>
          </mxGeometry>
        </mxCell>
        <mxCell id="X93Lmip0L_ZCADtNSoCG-17" style="edgeStyle=orthogonalEdgeStyle;rounded=0;orthogonalLoop=1;jettySize=auto;html=1;exitX=0.5;exitY=0.5;exitDx=0;exitDy=0;exitPerimeter=0;entryX=0;entryY=0.5;entryDx=0;entryDy=0;" parent="1" source="X93Lmip0L_ZCADtNSoCG-1" target="X93Lmip0L_ZCADtNSoCG-15" edge="1">
          <mxGeometry relative="1" as="geometry">
            <Array as="points">
              <mxPoint x="35" y="300" />
            </Array>
          </mxGeometry>
        </mxCell>
        <mxCell id="X93Lmip0L_ZCADtNSoCG-20" style="edgeStyle=orthogonalEdgeStyle;rounded=0;orthogonalLoop=1;jettySize=auto;html=1;exitX=0.5;exitY=0.5;exitDx=0;exitDy=0;exitPerimeter=0;" parent="1" source="X93Lmip0L_ZCADtNSoCG-1" target="X93Lmip0L_ZCADtNSoCG-18" edge="1">
          <mxGeometry relative="1" as="geometry" />
        </mxCell>
        <mxCell id="X93Lmip0L_ZCADtNSoCG-24" style="edgeStyle=orthogonalEdgeStyle;rounded=0;orthogonalLoop=1;jettySize=auto;html=1;exitX=0.5;exitY=0.5;exitDx=0;exitDy=0;exitPerimeter=0;entryX=0;entryY=0.5;entryDx=0;entryDy=0;" parent="1" source="X93Lmip0L_ZCADtNSoCG-1" target="X93Lmip0L_ZCADtNSoCG-23" edge="1">
          <mxGeometry relative="1" as="geometry" />
        </mxCell>
        <mxCell id="X93Lmip0L_ZCADtNSoCG-26" style="edgeStyle=orthogonalEdgeStyle;rounded=0;orthogonalLoop=1;jettySize=auto;html=1;exitX=0.5;exitY=0.5;exitDx=0;exitDy=0;exitPerimeter=0;entryX=0;entryY=0.5;entryDx=0;entryDy=0;" parent="1" source="X93Lmip0L_ZCADtNSoCG-1" target="X93Lmip0L_ZCADtNSoCG-25" edge="1">
          <mxGeometry relative="1" as="geometry" />
        </mxCell>
        <mxCell id="X93Lmip0L_ZCADtNSoCG-30" style="edgeStyle=orthogonalEdgeStyle;rounded=0;orthogonalLoop=1;jettySize=auto;html=1;exitX=1;exitY=1;exitDx=0;exitDy=0;exitPerimeter=0;entryX=0;entryY=0.5;entryDx=0;entryDy=0;" parent="1" source="X93Lmip0L_ZCADtNSoCG-1" target="X93Lmip0L_ZCADtNSoCG-29" edge="1">
          <mxGeometry relative="1" as="geometry" />
        </mxCell>
        <mxCell id="X93Lmip0L_ZCADtNSoCG-32" style="edgeStyle=orthogonalEdgeStyle;rounded=0;orthogonalLoop=1;jettySize=auto;html=1;exitX=1;exitY=1;exitDx=0;exitDy=0;exitPerimeter=0;entryX=0;entryY=0.5;entryDx=0;entryDy=0;" parent="1" source="X93Lmip0L_ZCADtNSoCG-1" target="X93Lmip0L_ZCADtNSoCG-31" edge="1">
          <mxGeometry relative="1" as="geometry" />
        </mxCell>
        <mxCell id="X93Lmip0L_ZCADtNSoCG-34" style="edgeStyle=orthogonalEdgeStyle;rounded=0;orthogonalLoop=1;jettySize=auto;html=1;exitX=1;exitY=1;exitDx=0;exitDy=0;exitPerimeter=0;entryX=0;entryY=0.5;entryDx=0;entryDy=0;" parent="1" source="X93Lmip0L_ZCADtNSoCG-1" target="X93Lmip0L_ZCADtNSoCG-33" edge="1">
          <mxGeometry relative="1" as="geometry" />
        </mxCell>
        <mxCell id="X93Lmip0L_ZCADtNSoCG-38" style="edgeStyle=orthogonalEdgeStyle;rounded=0;orthogonalLoop=1;jettySize=auto;html=1;entryX=0;entryY=0.5;entryDx=0;entryDy=0;" parent="1" source="X93Lmip0L_ZCADtNSoCG-1" target="X93Lmip0L_ZCADtNSoCG-37" edge="1">
          <mxGeometry relative="1" as="geometry" />
        </mxCell>
        <mxCell id="X93Lmip0L_ZCADtNSoCG-1" value="Usuário" style="shape=umlActor;verticalLabelPosition=bottom;verticalAlign=top;html=1;outlineConnect=0;" parent="1" vertex="1">
          <mxGeometry x="20" y="280" width="30" height="60" as="geometry" />
        </mxCell>
        <mxCell id="X93Lmip0L_ZCADtNSoCG-6" value="&lt;font style=&quot;font-size: 10px;&quot;&gt;Realizar cadastro com e-mail e&lt;br&gt;senha, nome, data de nascimento, gênero, filme favorito e estilo de filme favorito&lt;/font&gt;" style="ellipse;whiteSpace=wrap;html=1;" parent="1" vertex="1">
          <mxGeometry x="100" y="70" width="320" height="60" as="geometry" />
        </mxCell>
        <mxCell id="X93Lmip0L_ZCADtNSoCG-9" value="&lt;font style=&quot;font-size: 10px;&quot;&gt;Confirmar e-mail por meio de código de confirmação&lt;/font&gt;" style="ellipse;whiteSpace=wrap;html=1;" parent="1" vertex="1">
          <mxGeometry x="100" y="140" width="230" height="40" as="geometry" />
        </mxCell>
        <mxCell id="X93Lmip0L_ZCADtNSoCG-11" value="&lt;font style=&quot;font-size: 10px;&quot;&gt;Realizar login e logout no sistema&lt;/font&gt;" style="ellipse;whiteSpace=wrap;html=1;" parent="1" vertex="1">
          <mxGeometry x="100" y="190" width="170" height="40" as="geometry" />
        </mxCell>
        <mxCell id="X93Lmip0L_ZCADtNSoCG-13" value="&lt;font style=&quot;font-size: 10px;&quot;&gt;Alterar a senha através do email associado&lt;/font&gt;" style="ellipse;whiteSpace=wrap;html=1;" parent="1" vertex="1">
          <mxGeometry x="100" y="240" width="170" height="40" as="geometry" />
        </mxCell>
        <mxCell id="X93Lmip0L_ZCADtNSoCG-15" value="&lt;font style=&quot;font-size: 10px;&quot;&gt;Buscar filmes&lt;br&gt;&lt;/font&gt;" style="ellipse;whiteSpace=wrap;html=1;" parent="1" vertex="1">
          <mxGeometry x="210" y="285" width="80" height="30" as="geometry" />
        </mxCell>
        <mxCell id="X93Lmip0L_ZCADtNSoCG-18" value="&lt;font style=&quot;font-size: 10px;&quot;&gt;Observar as informações básicas do&lt;br&gt;filme&lt;/font&gt;" style="ellipse;whiteSpace=wrap;html=1;" parent="1" vertex="1">
          <mxGeometry x="100" y="325" width="190" height="50" as="geometry" />
        </mxCell>
        <mxCell id="X93Lmip0L_ZCADtNSoCG-23" value="&lt;font style=&quot;font-size: 10px;&quot;&gt;Observar as plataformas de streaming&lt;br&gt;que o filme desejado está presente;&lt;/font&gt;" style="ellipse;whiteSpace=wrap;html=1;" parent="1" vertex="1">
          <mxGeometry x="100" y="380" width="200" height="50" as="geometry" />
        </mxCell>
        <mxCell id="X93Lmip0L_ZCADtNSoCG-25" value="&lt;font style=&quot;font-size: 10px;&quot;&gt;Gerenciar lista de filmes favoritos&lt;/font&gt;" style="ellipse;whiteSpace=wrap;html=1;" parent="1" vertex="1">
          <mxGeometry x="100" y="440" width="160" height="30" as="geometry" />
        </mxCell>
        <mxCell id="X93Lmip0L_ZCADtNSoCG-29" value="&lt;font style=&quot;&quot;&gt;&lt;font style=&quot;font-size: 10px;&quot;&gt;Adicionar avaliações por corações aos filmes assistidos&lt;/font&gt;&lt;br&gt;&lt;/font&gt;" style="ellipse;whiteSpace=wrap;html=1;" parent="1" vertex="1">
          <mxGeometry x="100" y="480" width="240" height="50" as="geometry" />
        </mxCell>
        <mxCell id="X93Lmip0L_ZCADtNSoCG-31" value="&lt;font style=&quot;&quot;&gt;&lt;font style=&quot;font-size: 10px;&quot;&gt;Adicionar comentários aos filmes assistidos&lt;/font&gt;&lt;br&gt;&lt;/font&gt;" style="ellipse;whiteSpace=wrap;html=1;" parent="1" vertex="1">
          <mxGeometry x="100" y="540" width="220" height="30" as="geometry" />
        </mxCell>
        <mxCell id="X93Lmip0L_ZCADtNSoCG-33" value="&lt;font style=&quot;&quot;&gt;&lt;font style=&quot;font-size: 10px;&quot;&gt;Pesquisar por outros usuários através do login do outro usuário&lt;/font&gt;&lt;br&gt;&lt;/font&gt;" style="ellipse;whiteSpace=wrap;html=1;" parent="1" vertex="1">
          <mxGeometry x="100" y="580" width="310" height="30" as="geometry" />
        </mxCell>
        <mxCell id="X93Lmip0L_ZCADtNSoCG-37" value="&lt;font style=&quot;&quot;&gt;&lt;font style=&quot;font-size: 10px;&quot;&gt;Visualizar avaliações de outros usuários&lt;/font&gt;&lt;br&gt;&lt;/font&gt;" style="ellipse;whiteSpace=wrap;html=1;" parent="1" vertex="1">
          <mxGeometry x="100" y="620" width="200" height="30" as="geometry" />
        </mxCell>
        <mxCell id="X93Lmip0L_ZCADtNSoCG-48" style="edgeStyle=orthogonalEdgeStyle;rounded=0;orthogonalLoop=1;jettySize=auto;html=1;exitX=0.75;exitY=0.1;exitDx=0;exitDy=0;exitPerimeter=0;" parent="1" source="X93Lmip0L_ZCADtNSoCG-40" target="X93Lmip0L_ZCADtNSoCG-43" edge="1">
          <mxGeometry relative="1" as="geometry">
            <Array as="points">
              <mxPoint x="70" y="746" />
              <mxPoint x="70" y="725" />
            </Array>
          </mxGeometry>
        </mxCell>
        <mxCell id="X93Lmip0L_ZCADtNSoCG-49" style="edgeStyle=orthogonalEdgeStyle;rounded=0;orthogonalLoop=1;jettySize=auto;html=1;exitX=0.75;exitY=0.1;exitDx=0;exitDy=0;exitPerimeter=0;entryX=0;entryY=0.5;entryDx=0;entryDy=0;" parent="1" source="X93Lmip0L_ZCADtNSoCG-40" target="X93Lmip0L_ZCADtNSoCG-44" edge="1">
          <mxGeometry relative="1" as="geometry">
            <Array as="points">
              <mxPoint x="70" y="746" />
              <mxPoint x="70" y="770" />
              <mxPoint x="100" y="770" />
            </Array>
          </mxGeometry>
        </mxCell>
        <mxCell id="X93Lmip0L_ZCADtNSoCG-52" style="edgeStyle=orthogonalEdgeStyle;rounded=0;orthogonalLoop=1;jettySize=auto;html=1;exitX=0.75;exitY=0.1;exitDx=0;exitDy=0;exitPerimeter=0;entryX=0;entryY=0.5;entryDx=0;entryDy=0;" parent="1" source="X93Lmip0L_ZCADtNSoCG-40" target="X93Lmip0L_ZCADtNSoCG-46" edge="1">
          <mxGeometry relative="1" as="geometry">
            <Array as="points">
              <mxPoint x="70" y="746" />
              <mxPoint x="70" y="690" />
            </Array>
          </mxGeometry>
        </mxCell>
        <mxCell id="X93Lmip0L_ZCADtNSoCG-40" value="&lt;div&gt;Admin&lt;/div&gt;" style="shape=umlActor;verticalLabelPosition=bottom;verticalAlign=top;html=1;outlineConnect=0;" parent="1" vertex="1">
          <mxGeometry x="20" y="740" width="30" height="60" as="geometry" />
        </mxCell>
        <mxCell id="X93Lmip0L_ZCADtNSoCG-43" value="&lt;font style=&quot;&quot;&gt;&lt;font style=&quot;font-size: 10px;&quot;&gt;Visualizar a listagem de todos os usuários cadastrados&lt;/font&gt;&lt;br&gt;&lt;/font&gt;" style="ellipse;whiteSpace=wrap;html=1;" parent="1" vertex="1">
          <mxGeometry x="100" y="710" width="270" height="30" as="geometry" />
        </mxCell>
        <mxCell id="X93Lmip0L_ZCADtNSoCG-44" value="&lt;font style=&quot;&quot;&gt;&lt;font style=&quot;font-size: 10px;&quot;&gt;Excluir o cadastro de um usuário&lt;/font&gt;&lt;br&gt;&lt;/font&gt;" style="ellipse;whiteSpace=wrap;html=1;" parent="1" vertex="1">
          <mxGeometry x="100" y="760" width="190" height="20" as="geometry" />
        </mxCell>
        <mxCell id="X93Lmip0L_ZCADtNSoCG-46" value="&lt;font style=&quot;&quot;&gt;&lt;font style=&quot;font-size: 10px;&quot;&gt;Realizar o login/logout do sistema&lt;/font&gt;&lt;br&gt;&lt;/font&gt;" style="ellipse;whiteSpace=wrap;html=1;" parent="1" vertex="1">
          <mxGeometry x="100" y="680" width="170" height="20" as="geometry" />
        </mxCell>
        <mxCell id="X93Lmip0L_ZCADtNSoCG-69" value="&lt;div&gt;Inserir filme&lt;/div&gt;" style="ellipse;whiteSpace=wrap;html=1;" parent="1" vertex="1">
          <mxGeometry x="380" y="410" width="120" height="20" as="geometry" />
        </mxCell>
        <mxCell id="X93Lmip0L_ZCADtNSoCG-71" value="Remover filme" style="ellipse;whiteSpace=wrap;html=1;" parent="1" vertex="1">
          <mxGeometry x="380" y="470" width="120" height="20" as="geometry" />
        </mxCell>
        <mxCell id="X93Lmip0L_ZCADtNSoCG-72" value="&amp;lt;&amp;lt;extend&amp;gt;&amp;gt;" style="html=1;verticalAlign=bottom;endArrow=open;dashed=1;endSize=8;curved=0;rounded=0;exitX=0;exitY=0.5;exitDx=0;exitDy=0;entryX=1;entryY=0.5;entryDx=0;entryDy=0;" parent="1" source="X93Lmip0L_ZCADtNSoCG-69" target="X93Lmip0L_ZCADtNSoCG-25" edge="1">
          <mxGeometry x="-0.2348" y="12" relative="1" as="geometry">
            <mxPoint x="489.4399999999998" y="386.0999999999999" as="sourcePoint" />
            <mxPoint x="285" y="440" as="targetPoint" />
            <mxPoint as="offset" />
          </mxGeometry>
        </mxCell>
        <mxCell id="X93Lmip0L_ZCADtNSoCG-76" value="&amp;lt;&amp;lt;extend&amp;gt;&amp;gt;" style="html=1;verticalAlign=bottom;endArrow=open;dashed=1;endSize=8;curved=0;rounded=0;exitX=0;exitY=0.5;exitDx=0;exitDy=0;entryX=1.011;entryY=0.647;entryDx=0;entryDy=0;entryPerimeter=0;" parent="1" source="X93Lmip0L_ZCADtNSoCG-71" target="X93Lmip0L_ZCADtNSoCG-25" edge="1">
          <mxGeometry relative="1" as="geometry">
            <mxPoint x="355" y="410" as="sourcePoint" />
            <mxPoint x="284.9999999999998" y="440" as="targetPoint" />
          </mxGeometry>
        </mxCell>
        <mxCell id="X93Lmip0L_ZCADtNSoCG-77" value="" style="endArrow=classic;html=1;rounded=0;exitX=1;exitY=0.5;exitDx=0;exitDy=0;entryX=0;entryY=0.5;entryDx=0;entryDy=0;" parent="1" source="X93Lmip0L_ZCADtNSoCG-18" target="2owjuL4q0EjUBGW6KN5H-2" edge="1">
          <mxGeometry width="50" height="50" relative="1" as="geometry">
            <mxPoint x="330" y="290" as="sourcePoint" />
            <mxPoint x="630.0000000000002" y="310" as="targetPoint" />
          </mxGeometry>
        </mxCell>
        <mxCell id="X93Lmip0L_ZCADtNSoCG-78" value="&lt;font style=&quot;font-size: 10px;&quot;&gt;Buscar por gênero&lt;br&gt;&lt;/font&gt;" style="ellipse;whiteSpace=wrap;html=1;" parent="1" vertex="1">
          <mxGeometry x="400" y="190" width="100" height="20" as="geometry" />
        </mxCell>
        <mxCell id="X93Lmip0L_ZCADtNSoCG-79" value="" style="endArrow=block;dashed=1;endFill=0;endSize=12;html=1;rounded=0;exitX=0;exitY=0.5;exitDx=0;exitDy=0;entryX=1;entryY=0.5;entryDx=0;entryDy=0;" parent="1" source="X93Lmip0L_ZCADtNSoCG-78" target="X93Lmip0L_ZCADtNSoCG-15" edge="1">
          <mxGeometry width="160" relative="1" as="geometry">
            <mxPoint x="375" y="390" as="sourcePoint" />
            <mxPoint x="240" y="450" as="targetPoint" />
          </mxGeometry>
        </mxCell>
        <mxCell id="X93Lmip0L_ZCADtNSoCG-80" value="&amp;lt;&amp;lt;extend&amp;gt;&amp;gt;" style="edgeLabel;html=1;align=center;verticalAlign=middle;resizable=0;points=[];" parent="X93Lmip0L_ZCADtNSoCG-79" vertex="1" connectable="0">
          <mxGeometry x="-0.1136" y="2" relative="1" as="geometry">
            <mxPoint x="3" y="-9" as="offset" />
          </mxGeometry>
        </mxCell>
        <mxCell id="X93Lmip0L_ZCADtNSoCG-82" value="&lt;font style=&quot;font-size: 10px;&quot;&gt;Buscar por ator&lt;br&gt;&lt;/font&gt;" style="ellipse;whiteSpace=wrap;html=1;" parent="1" vertex="1">
          <mxGeometry x="400" y="230" width="100" height="20" as="geometry" />
        </mxCell>
        <mxCell id="X93Lmip0L_ZCADtNSoCG-83" value="&lt;font style=&quot;font-size: 10px;&quot;&gt;Buscar por diretor&lt;br&gt;&lt;/font&gt;" style="ellipse;whiteSpace=wrap;html=1;" parent="1" vertex="1">
          <mxGeometry x="400" y="275" width="100" height="20" as="geometry" />
        </mxCell>
        <mxCell id="X93Lmip0L_ZCADtNSoCG-84" value="" style="endArrow=block;dashed=1;endFill=0;endSize=12;html=1;rounded=0;exitX=0;exitY=0.5;exitDx=0;exitDy=0;entryX=1;entryY=0.5;entryDx=0;entryDy=0;" parent="1" source="X93Lmip0L_ZCADtNSoCG-82" target="X93Lmip0L_ZCADtNSoCG-15" edge="1">
          <mxGeometry width="160" relative="1" as="geometry">
            <mxPoint x="370" y="240" as="sourcePoint" />
            <mxPoint x="280" y="315" as="targetPoint" />
          </mxGeometry>
        </mxCell>
        <mxCell id="X93Lmip0L_ZCADtNSoCG-85" value="&amp;lt;&amp;lt;extend&amp;gt;&amp;gt;" style="edgeLabel;html=1;align=center;verticalAlign=middle;resizable=0;points=[];" parent="X93Lmip0L_ZCADtNSoCG-84" vertex="1" connectable="0">
          <mxGeometry x="-0.1136" y="2" relative="1" as="geometry">
            <mxPoint x="3" y="-9" as="offset" />
          </mxGeometry>
        </mxCell>
        <mxCell id="X93Lmip0L_ZCADtNSoCG-86" value="" style="endArrow=block;dashed=1;endFill=0;endSize=12;html=1;rounded=0;exitX=0;exitY=0.5;exitDx=0;exitDy=0;entryX=1;entryY=0.5;entryDx=0;entryDy=0;" parent="1" source="X93Lmip0L_ZCADtNSoCG-83" target="X93Lmip0L_ZCADtNSoCG-15" edge="1">
          <mxGeometry width="160" relative="1" as="geometry">
            <mxPoint x="370" y="280" as="sourcePoint" />
            <mxPoint x="280" y="315" as="targetPoint" />
          </mxGeometry>
        </mxCell>
        <mxCell id="X93Lmip0L_ZCADtNSoCG-87" value="&amp;lt;&amp;lt;extend&amp;gt;&amp;gt;" style="edgeLabel;html=1;align=center;verticalAlign=middle;resizable=0;points=[];" parent="X93Lmip0L_ZCADtNSoCG-86" vertex="1" connectable="0">
          <mxGeometry x="-0.1136" y="2" relative="1" as="geometry">
            <mxPoint x="3" y="-9" as="offset" />
          </mxGeometry>
        </mxCell>
        <mxCell id="2owjuL4q0EjUBGW6KN5H-2" value="&lt;font style=&quot;font-size: 10px;&quot;&gt;enredo, gênero, elenco, duração, diretor, notas de sites de&lt;br&gt;avaliação (IMDb e Rotten Tomatoes) e prêmios conquistados&lt;/font&gt;" style="text;html=1;strokeColor=none;fillColor=none;align=center;verticalAlign=middle;whiteSpace=wrap;rounded=0;shadow=0;" vertex="1" parent="1">
          <mxGeometry x="320" y="315" width="160" height="70" as="geometry" />
        </mxCell>
      </root>
    </mxGraphModel>
  </diagram>
</mxfile>
